<svg xmlns="http://www.w3.org/2000/svg" width="155" height="157" viewBox="0 0 155 157"><defs><clipPath id="vouia"><path fill="#fff" d="M77.5 60C87.165 60 95 67.835 95 77.5S87.165 95 77.5 95 60 87.165 60 77.5 67.835 60 77.5 60z"/></clipPath><clipPath id="vouib"><path fill="#fff" d="M69.542 92.43a1.47 1.47 0 0 1 0 2.07l-2.057 2.07a1.448 1.448 0 0 1-2.057 0 1.47 1.47 0 0 1 0-2.07l2.057-2.07a1.449 1.449 0 0 1 2.057 0z"/></clipPath><clipPath id="vouic"><path fill="#fff" d="M85.458 92.427a1.455 1.455 0 0 0 0 2.057l2.057 2.058a1.454 1.454 0 1 0 2.057-2.058l-2.057-2.057a1.455 1.455 0 0 0-2.057 0z"/></clipPath><clipPath id="vouid"><path fill="#fff" d="M77.484 70.996c.815 0 1.475.625 1.475 1.397v3.63h6.56c.814 0 1.475.664 1.475 1.482 0 .82-.66 1.483-1.475 1.483h-8.035c-.814 0-1.475-.624-1.475-1.396l.001-.042v-5.157c0-.772.66-1.397 1.474-1.397z"/></clipPath></defs><g><g><g><path fill="none" stroke="#267df4" stroke-miterlimit="20" stroke-width="6" d="M77.5 60C87.165 60 95 67.835 95 77.5S87.165 95 77.5 95 60 87.165 60 77.5 67.835 60 77.5 60z" clip-path="url(&quot;#vouia&quot;)"/></g><g><path fill="none" stroke="#267df4" stroke-miterlimit="20" stroke-width="3" d="M60.336 65.015c-.05-.079-.105-.153-.153-.235-2.403-4.13-1.061-9.363 2.996-11.687 4.058-2.325 9.295-.862 11.698 3.269.048.081.084.165.128.248 0 0-4.387.94-7.907 2.957-3.804 2.18-6.762 5.448-6.762 5.448z"/></g><g><path fill="none" stroke="#267df4" stroke-miterlimit="20" stroke-width="3" d="M94.664 65.015c.05-.079.105-.153.153-.235 2.403-4.13 1.061-9.363-2.996-11.687-4.058-2.325-9.295-.862-11.698 3.269-.048.081-.084.165-.128.248 0 0 4.387.94 7.907 2.957 3.804 2.18 6.762 5.448 6.762 5.448z"/></g><g><path fill="none" stroke="#267df4" stroke-miterlimit="20" stroke-width="6" d="M69.542 92.43a1.47 1.47 0 0 1 0 2.07l-2.057 2.07a1.448 1.448 0 0 1-2.057 0 1.47 1.47 0 0 1 0-2.07l2.057-2.07a1.449 1.449 0 0 1 2.057 0z" clip-path="url(&quot;#vouib&quot;)"/></g><g><path fill="none" stroke="#267df4" stroke-miterlimit="20" stroke-width="6" d="M85.458 92.427a1.455 1.455 0 0 0 0 2.057l2.057 2.058a1.454 1.454 0 1 0 2.057-2.058l-2.057-2.057a1.455 1.455 0 0 0-2.057 0z" clip-path="url(&quot;#vouic&quot;)"/></g><g><path fill="none" stroke="#267df4" stroke-miterlimit="20" stroke-width="6" d="M77.484 70.996c.815 0 1.475.625 1.475 1.397v3.63h6.56c.814 0 1.475.664 1.475 1.482 0 .82-.66 1.483-1.475 1.483h-8.035c-.814 0-1.475-.624-1.475-1.396l.001-.042v-5.157c0-.772.66-1.397 1.474-1.397z" clip-path="url(&quot;#vouid&quot;)"/></g></g></g></svg>