<svg xmlns="http://www.w3.org/2000/svg" width="162" height="171" viewBox="0 0 162 171"><defs><clipPath id="s66ra"><path fill="#fff" d="M64 80h34a4 4 0 0 1 4 4v23a4 4 0 0 1-4 4H64a4 4 0 0 1-4-4V84a4 4 0 0 1 4-4z"/></clipPath><clipPath id="s66rb"><path fill="#fff" d="M80 60h2c8.284 0 15 6.715 15 15v8H65v-8c0-8.285 6.716-15 15-15z"/></clipPath><clipPath id="s66rc"><path fill="#fff" d="M81 65c6.075 0 11 4.925 11 11v7H70v-7c0-6.075 4.925-11 11-11z"/></clipPath><clipPath id="s66rd"><path fill="#fff" d="M73.575 93.354a1.5 1.5 0 0 1 2.122 0l3.889 3.888 6.717-6.717a1.5 1.5 0 0 1 2.122 2.121l-7.778 7.778a1.5 1.5 0 0 1-2.122 0l-4.95-4.949a1.5 1.5 0 0 1 0-2.121z"/></clipPath></defs><g><g><g><path fill="none" stroke="#267df4" stroke-miterlimit="20" stroke-width="6" d="M64 80h34a4 4 0 0 1 4 4v23a4 4 0 0 1-4 4H64a4 4 0 0 1-4-4V84a4 4 0 0 1 4-4z" clip-path="url(&quot;#s66ra&quot;)"/></g><g><path fill="none" stroke="#267df4" stroke-miterlimit="20" stroke-width="6" d="M80 60h2c8.284 0 15 6.715 15 15v8H65v0-8c0-8.285 6.716-15 15-15z" clip-path="url(&quot;#s66rb&quot;)"/></g><g><path fill="none" stroke="#267df4" stroke-miterlimit="20" stroke-width="6" d="M81 65c6.075 0 11 4.925 11 11v7H70v0-7c0-6.075 4.925-11 11-11z" clip-path="url(&quot;#s66rc&quot;)"/></g><g><path fill="none" stroke="#267df4" stroke-miterlimit="20" stroke-width="6" d="M73.575 93.354a1.5 1.5 0 0 1 2.122 0l3.889 3.888 6.717-6.717a1.5 1.5 0 0 1 2.122 2.121l-7.778 7.778s0 0 0 0a1.5 1.5 0 0 1-2.122 0s0 0 0 0l-4.95-4.949a1.5 1.5 0 0 1 0-2.121z" clip-path="url(&quot;#s66rd&quot;)"/></g></g></g></svg>